<svg width="25" height="25" viewBox="0 0 25 25" fill="none" xmlns="http://www.w3.org/2000/svg">
<path d="M11.8968 2.20631H3.42152C2.77929 2.20631 2.16337 2.46143 1.70925 2.91555C1.25512 3.36968 1 3.9856 1 4.62783V21.5785C1 22.2207 1.25512 22.8366 1.70925 23.2908C2.16337 23.7449 2.77929 24 3.42152 24H20.3722C21.0144 24 21.6303 23.7449 22.0844 23.2908C22.5386 22.8366 22.7937 22.2207 22.7937 21.5785V13.1032M19.6154 1.75227C20.0971 1.2706 20.7504 1 21.4316 1C22.1128 1 22.7661 1.2706 23.2477 1.75227C23.7294 2.23394 24 2.88723 24 3.56841C24 4.2496 23.7294 4.90288 23.2477 5.38455L12.3351 16.2984C12.0476 16.5856 11.6925 16.7959 11.3024 16.9098L7.82385 17.9268C7.71966 17.9572 7.60923 17.959 7.5041 17.9321C7.39897 17.9052 7.30301 17.8505 7.22627 17.7737C7.14953 17.697 7.09484 17.601 7.0679 17.4959C7.04097 17.3908 7.04279 17.2803 7.07318 17.1762L8.09022 13.6976C8.20466 13.3078 8.41535 12.9531 8.70286 12.6661L19.6154 1.75227Z" stroke="#3B5998" stroke-width="2" stroke-linecap="round" stroke-linejoin="round"/>
</svg>
