<svg width="29" height="31" viewBox="0 0 29 31" fill="none" xmlns="http://www.w3.org/2000/svg">
<path d="M19 30V17.7898C19 17.385 18.842 16.9968 18.5607 16.7105C18.2794 16.4243 17.8978 16.2635 17.5 16.2635H11.5C11.1022 16.2635 10.7206 16.4243 10.4393 16.7105C10.158 16.9968 10 17.385 10 17.7898V30M1 13.2109C0.999895 12.7669 1.095 12.3282 1.27868 11.9254C1.46236 11.5226 1.7302 11.1654 2.0635 10.8788L12.5635 1.72113C13.105 1.25548 13.791 1 14.5 1C15.209 1 15.895 1.25548 16.4365 1.72113L26.9365 10.8788C27.2698 11.1654 27.5376 11.5226 27.7213 11.9254C27.905 12.3282 28.0001 12.7669 28 13.2109V26.9474C28 27.757 27.6839 28.5335 27.1213 29.1059C26.5587 29.6784 25.7956 30 25 30H4C3.20435 30 2.44129 29.6784 1.87868 29.1059C1.31607 28.5335 1 27.757 1 26.9474V13.2109Z" stroke="white" stroke-width="2" stroke-linecap="round" stroke-linejoin="round"/>
</svg>
