<svg width="63" height="63" viewBox="0 0 63 63" fill="none" xmlns="http://www.w3.org/2000/svg">
<path fill-rule="evenodd" clip-rule="evenodd" d="M30.8818 5.89833C25.5015 5.81562 20.2235 7.37307 15.75 10.3635C5.22309 17.3978 1.11234 30.9527 5.95743 42.651C10.8006 54.3493 23.2883 61.0196 35.7072 58.5507C48.1261 56.08 57.1095 45.1335 57.1095 32.4725H57.0977V29.5194H33.4727V37.3944H48.8683C47.9537 40.8194 46.0968 43.9194 43.5086 46.3419C40.9204 48.7645 37.7047 50.4125 34.2267 51.099C29.9165 51.9637 25.4398 51.3034 21.5628 49.2311C17.6859 47.1589 14.6497 43.8034 12.9741 39.7392C11.2857 35.6809 11.0602 31.162 12.3363 26.9558C13.6123 22.7496 16.3104 19.1174 19.969 16.6812C23.6198 14.2329 28.008 13.1298 32.3825 13.5608C36.757 13.9918 40.8456 15.9301 43.9484 19.0438L49.3231 13.673C44.4253 8.7754 37.8076 5.98542 30.8818 5.89833Z" fill="#EA4335"/>
<path fill-rule="evenodd" clip-rule="evenodd" d="M12.413 38.1997L6.10312 42.9601C11.0407 54.4615 23.4006 60.9998 35.7072 58.5527C41.23 57.448 46.2572 54.6122 50.0594 50.4571L44.1138 45.7005C41.829 48.0603 38.9703 49.786 35.8179 50.7082C32.6655 51.6304 29.3275 51.7176 26.1312 50.9613C22.9349 50.205 19.9899 48.631 17.5851 46.3939C15.1802 44.1567 13.3979 41.3331 12.413 38.1997Z" fill="#34A853"/>
<path fill-rule="evenodd" clip-rule="evenodd" d="M8.85149 17.0731C3.68548 24.3634 2.37824 34.0141 5.95742 42.651C6.03814 42.8479 6.20942 43.2396 6.20942 43.2396C8.87511 41.7 10.8439 40.3495 12.7181 39.0738C11.6578 36.2316 11.2954 33.1763 11.6613 30.1649C12.0271 27.1535 13.1107 24.274 14.8207 21.7684C10.8439 18.6932 10.8439 18.6934 8.85149 17.0731Z" fill="#FBBC05"/>
<path fill-rule="evenodd" clip-rule="evenodd" d="M33.4727 29.5215V37.3965H48.8683C48.0207 40.5265 46.3828 43.3858 44.1118 45.7005L50.0614 50.457C54.5858 45.5607 57.102 39.1413 57.1095 32.4746H57.0977V29.5215H33.4727Z" fill="#4788F4"/>
</svg>
