<svg width="18" height="22" viewBox="0 0 18 22" fill="none" xmlns="http://www.w3.org/2000/svg">
<path d="M9 9H9.01M9 13H9.01M9 5H9.01M13 9H13.01M13 13H13.01M13 5H13.01M5 9H5.01M5 13H5.01M5 5H5.01M6 21V18C6 17.7348 6.10536 17.4804 6.29289 17.2929C6.48043 17.1054 6.73478 17 7 17H11C11.2652 17 11.5196 17.1054 11.7071 17.2929C11.8946 17.4804 12 17.7348 12 18V21M3 1H15C16.1046 1 17 1.89543 17 3V19C17 20.1046 16.1046 21 15 21H3C1.89543 21 1 20.1046 1 19V3C1 1.89543 1.89543 1 3 1Z" stroke="#3B5998" stroke-width="2" stroke-linecap="round" stroke-linejoin="round"/>
</svg>
