<svg width="35" height="35" viewBox="0 0 35 35" fill="none" xmlns="http://www.w3.org/2000/svg">
<path d="M26.1406 29.2483C25.8133 27.1918 24.7633 25.3195 23.1793 23.9677C21.5953 22.616 19.5811 21.8735 17.4987 21.8737C15.4163 21.8738 13.4022 22.6167 11.8184 23.9687C10.2346 25.3207 9.1849 27.1932 8.85794 29.2498M23.3334 16.0417C23.3334 19.2633 20.7217 21.875 17.5 21.875C14.2784 21.875 11.6667 19.2633 11.6667 16.0417C11.6667 12.82 14.2784 10.2083 17.5 10.2083C20.7217 10.2083 23.3334 12.82 23.3334 16.0417ZM32.0834 17.5C32.0834 25.5542 25.5542 32.0833 17.5 32.0833C9.44587 32.0833 2.91669 25.5542 2.91669 17.5C2.91669 9.44585 9.44587 2.91667 17.5 2.91667C25.5542 2.91667 32.0834 9.44585 32.0834 17.5Z" stroke="black" stroke-width="2" stroke-linecap="round" stroke-linejoin="round"/>
</svg>
