<svg width="18" height="22" viewBox="0 0 18 22" fill="none" xmlns="http://www.w3.org/2000/svg">
<path d="M10 15.0046H5M11 7.00455H5M13 11.0046H5M1 2.00455C1 1.73934 1.10536 1.48498 1.29289 1.29745C1.48043 1.10991 1.73478 1.00455 2 1.00455C2.24762 1.00319 2.49048 1.07258 2.7 1.20455L3.633 1.80455C3.84204 1.93813 4.08493 2.00911 4.333 2.00911C4.58107 2.00911 4.82396 1.93813 5.033 1.80455L5.967 1.20455C6.17604 1.07098 6.41893 1 6.667 1C6.91507 1 7.15796 1.07098 7.367 1.20455L8.3 1.80455C8.50904 1.93813 8.75193 2.00911 9 2.00911C9.24807 2.00911 9.49096 1.93813 9.7 1.80455L10.633 1.20455C10.842 1.07098 11.0849 1 11.333 1C11.5811 1 11.824 1.07098 12.033 1.20455L12.967 1.80455C13.176 1.93813 13.4189 2.00911 13.667 2.00911C13.9151 2.00911 14.158 1.93813 14.367 1.80455L15.3 1.20455C15.5095 1.07258 15.7524 1.00319 16 1.00455C16.2652 1.00455 16.5196 1.10991 16.7071 1.29745C16.8946 1.48498 17 1.73934 17 2.00455V20.0046C17 20.2698 16.8946 20.5241 16.7071 20.7117C16.5196 20.8992 16.2652 21.0046 16 21.0046C15.7524 21.0059 15.5095 20.9365 15.3 20.8046L14.367 20.2046C14.158 20.071 13.9151 20 13.667 20C13.4189 20 13.176 20.071 12.967 20.2046L12.033 20.8046C11.824 20.9381 11.5811 21.0091 11.333 21.0091C11.0849 21.0091 10.842 20.9381 10.633 20.8046L9.7 20.2046C9.49096 20.071 9.24807 20 9 20C8.75193 20 8.50904 20.071 8.3 20.2046L7.367 20.8046C7.15796 20.9381 6.91507 21.0091 6.667 21.0091C6.41893 21.0091 6.17604 20.9381 5.967 20.8046L5.033 20.2046C4.82396 20.071 4.58107 20 4.333 20C4.08493 20 3.84204 20.071 3.633 20.2046L2.7 20.8046C2.49048 20.9365 2.24762 21.0059 2 21.0046C1.73478 21.0046 1.48043 20.8992 1.29289 20.7117C1.10536 20.5241 1 20.2698 1 20.0046V2.00455Z" stroke="#3B5998" stroke-width="2" stroke-linecap="round" stroke-linejoin="round"/>
</svg>
