<svg width="22" height="22" viewBox="0 0 22 22" fill="none" xmlns="http://www.w3.org/2000/svg">
<path d="M12.2833 1.83333H5.49998C5.01375 1.83333 4.54743 2.02648 4.20362 2.3703C3.8598 2.71411 3.66665 3.18043 3.66665 3.66666V18.3333C3.66665 18.8196 3.8598 19.2859 4.20362 19.6297C4.54743 19.9735 5.01375 20.1667 5.49998 20.1667H16.5C16.9862 20.1667 17.4525 19.9735 17.7963 19.6297C18.1402 19.2859 18.3333 18.8196 18.3333 18.3333V11.55M1.83331 5.49999H5.49998M1.83331 9.16666H5.49998M1.83331 12.8333H5.49998M1.83331 16.5H5.49998M19.5965 5.15716C19.9616 4.792 20.1668 4.29674 20.1668 3.78033C20.1668 3.26391 19.9616 2.76865 19.5965 2.40349C19.2313 2.03834 18.7361 1.83319 18.2196 1.83319C17.7032 1.83319 17.208 2.03834 16.8428 2.40349L12.2503 6.99783C12.0324 7.21565 11.8728 7.48488 11.7865 7.78066L11.0192 10.4115C10.9962 10.4904 10.9948 10.574 11.0152 10.6536C11.0356 10.7332 11.077 10.8058 11.1351 10.8639C11.1932 10.922 11.2659 10.9634 11.3455 10.9838C11.4251 11.0042 11.5087 11.0028 11.5876 10.9798L14.2184 10.2126C14.5142 10.1262 14.7834 9.96668 15.0012 9.74874L19.5965 5.15716Z" stroke="#3B5998" stroke-width="2" stroke-linecap="round" stroke-linejoin="round"/>
</svg>
